<mxfile host="app.diagrams.net" modified="2024-04-28T21:50:36.489Z" agent="Mozilla/5.0 (Windows NT 10.0; Win64; x64) AppleWebKit/537.36 (KHTML, like Gecko) Chrome/124.0.0.0 Safari/537.36" etag="L_T7pShn9bUmHCg7a65V" version="24.3.1" type="device">
  <diagram name="Strona-1" id="70gGhImr7tqJyxK9spMB">
    <mxGraphModel dx="1434" dy="746" grid="1" gridSize="10" guides="1" tooltips="1" connect="1" arrows="1" fold="1" page="1" pageScale="1" pageWidth="827" pageHeight="1169" math="0" shadow="0">
      <root>
        <mxCell id="0" />
        <mxCell id="1" parent="0" />
        <mxCell id="FrG4RJ89-dC1UEQUiTh_-10" value="budget_analysis" style="whiteSpace=wrap;html=1;align=center;verticalAlign=top;dashed=1;dashPattern=8 8;" vertex="1" parent="1">
          <mxGeometry x="414" y="70" width="261" height="150" as="geometry" />
        </mxCell>
        <mxCell id="FrG4RJ89-dC1UEQUiTh_-11" style="edgeStyle=orthogonalEdgeStyle;rounded=0;orthogonalLoop=1;jettySize=auto;html=1;entryX=0;entryY=0.5;entryDx=0;entryDy=0;" edge="1" parent="1" source="FrG4RJ89-dC1UEQUiTh_-1" target="FrG4RJ89-dC1UEQUiTh_-10">
          <mxGeometry relative="1" as="geometry" />
        </mxCell>
        <mxCell id="FrG4RJ89-dC1UEQUiTh_-32" style="edgeStyle=orthogonalEdgeStyle;rounded=0;orthogonalLoop=1;jettySize=auto;html=1;exitX=0.25;exitY=1;exitDx=0;exitDy=0;entryX=0.5;entryY=0;entryDx=0;entryDy=0;" edge="1" parent="1" source="FrG4RJ89-dC1UEQUiTh_-1" target="FrG4RJ89-dC1UEQUiTh_-15">
          <mxGeometry relative="1" as="geometry" />
        </mxCell>
        <mxCell id="FrG4RJ89-dC1UEQUiTh_-33" style="edgeStyle=orthogonalEdgeStyle;rounded=0;orthogonalLoop=1;jettySize=auto;html=1;exitX=0.75;exitY=1;exitDx=0;exitDy=0;entryX=0.5;entryY=0;entryDx=0;entryDy=0;" edge="1" parent="1" source="FrG4RJ89-dC1UEQUiTh_-1" target="FrG4RJ89-dC1UEQUiTh_-27">
          <mxGeometry relative="1" as="geometry" />
        </mxCell>
        <mxCell id="FrG4RJ89-dC1UEQUiTh_-1" value="&lt;p style=&quot;line-height: 100%; margin-top: 0px; margin-bottom: 20px;&quot;&gt;budget_manager&lt;/p&gt;" style="whiteSpace=wrap;html=1;align=center;verticalAlign=top;dashed=1;dashPattern=8 8;" vertex="1" parent="1">
          <mxGeometry x="70" y="70" width="261" height="150" as="geometry" />
        </mxCell>
        <mxCell id="FrG4RJ89-dC1UEQUiTh_-4" value="credits / debits" style="rounded=0;whiteSpace=wrap;html=1;" vertex="1" parent="1">
          <mxGeometry x="91" y="100" width="100" height="40" as="geometry" />
        </mxCell>
        <mxCell id="FrG4RJ89-dC1UEQUiTh_-5" value="predictions" style="rounded=0;whiteSpace=wrap;html=1;" vertex="1" parent="1">
          <mxGeometry x="559.5" y="97.5" width="100" height="40" as="geometry" />
        </mxCell>
        <mxCell id="FrG4RJ89-dC1UEQUiTh_-6" value="habits_analysis" style="rounded=0;whiteSpace=wrap;html=1;" vertex="1" parent="1">
          <mxGeometry x="429.5" y="97.5" width="100" height="40" as="geometry" />
        </mxCell>
        <mxCell id="FrG4RJ89-dC1UEQUiTh_-8" value="savings&lt;span style=&quot;color: rgba(0, 0, 0, 0); font-family: monospace; font-size: 0px; text-align: start; text-wrap: nowrap;&quot;&gt;%3CmxGraphModel%3E%3Croot%3E%3CmxCell%20id%3D%220%22%2F%3E%3CmxCell%20id%3D%221%22%20parent%3D%220%22%2F%3E%3CmxCell%20id%3D%222%22%20value%3D%22credits%20%2F%20debits%22%20style%3D%22rounded%3D0%3BwhiteSpace%3Dwrap%3Bhtml%3D1%3B%22%20vertex%3D%221%22%20parent%3D%221%22%3E%3CmxGeometry%20x%3D%22270%22%20y%3D%22150%22%20width%3D%22100%22%20height%3D%2240%22%20as%3D%22geometry%22%2F%3E%3C%2FmxCell%3E%3C%2Froot%3E%3C%2FmxGraphModel%3E&lt;/span&gt;" style="rounded=0;whiteSpace=wrap;html=1;" vertex="1" parent="1">
          <mxGeometry x="211" y="100" width="100" height="40" as="geometry" />
        </mxCell>
        <mxCell id="FrG4RJ89-dC1UEQUiTh_-9" value="monthly_budget" style="rounded=0;whiteSpace=wrap;html=1;" vertex="1" parent="1">
          <mxGeometry x="150.5" y="160" width="100" height="40" as="geometry" />
        </mxCell>
        <mxCell id="FrG4RJ89-dC1UEQUiTh_-13" value="dashboard" style="rounded=0;whiteSpace=wrap;html=1;" vertex="1" parent="1">
          <mxGeometry x="429.5" y="152.5" width="100" height="40" as="geometry" />
        </mxCell>
        <mxCell id="FrG4RJ89-dC1UEQUiTh_-14" value="reports" style="rounded=0;whiteSpace=wrap;html=1;" vertex="1" parent="1">
          <mxGeometry x="559.5" y="152.5" width="100" height="40" as="geometry" />
        </mxCell>
        <mxCell id="FrG4RJ89-dC1UEQUiTh_-15" value="stock" style="whiteSpace=wrap;html=1;align=center;verticalAlign=top;dashed=1;dashPattern=8 8;" vertex="1" parent="1">
          <mxGeometry x="70" y="360" width="289" height="150" as="geometry" />
        </mxCell>
        <mxCell id="FrG4RJ89-dC1UEQUiTh_-23" value="stock_tracker" style="rounded=0;whiteSpace=wrap;html=1;" vertex="1" parent="1">
          <mxGeometry x="231" y="400" width="100" height="40" as="geometry" />
        </mxCell>
        <mxCell id="FrG4RJ89-dC1UEQUiTh_-24" value="stock_analysis_alg" style="rounded=0;whiteSpace=wrap;html=1;" vertex="1" parent="1">
          <mxGeometry x="78" y="450" width="124" height="40" as="geometry" />
        </mxCell>
        <mxCell id="FrG4RJ89-dC1UEQUiTh_-25" value="stock_prices" style="rounded=0;whiteSpace=wrap;html=1;" vertex="1" parent="1">
          <mxGeometry x="90" y="400" width="100" height="40" as="geometry" />
        </mxCell>
        <mxCell id="FrG4RJ89-dC1UEQUiTh_-26" value="stock_analysis_ai_alg" style="rounded=0;whiteSpace=wrap;html=1;" vertex="1" parent="1">
          <mxGeometry x="211" y="450" width="140" height="40" as="geometry" />
        </mxCell>
        <mxCell id="FrG4RJ89-dC1UEQUiTh_-27" value="crypto" style="whiteSpace=wrap;html=1;align=center;verticalAlign=top;dashed=1;dashPattern=8 8;" vertex="1" parent="1">
          <mxGeometry x="420" y="360" width="289" height="150" as="geometry" />
        </mxCell>
        <mxCell id="FrG4RJ89-dC1UEQUiTh_-28" value="crypto_tracker" style="rounded=0;whiteSpace=wrap;html=1;" vertex="1" parent="1">
          <mxGeometry x="581" y="400" width="100" height="40" as="geometry" />
        </mxCell>
        <mxCell id="FrG4RJ89-dC1UEQUiTh_-29" value="crypto_analysis_alg" style="rounded=0;whiteSpace=wrap;html=1;" vertex="1" parent="1">
          <mxGeometry x="428" y="450" width="124" height="40" as="geometry" />
        </mxCell>
        <mxCell id="FrG4RJ89-dC1UEQUiTh_-30" value="crypto_prices" style="rounded=0;whiteSpace=wrap;html=1;" vertex="1" parent="1">
          <mxGeometry x="440" y="400" width="100" height="40" as="geometry" />
        </mxCell>
        <mxCell id="FrG4RJ89-dC1UEQUiTh_-31" value="crypto_analysis_ai_alg" style="rounded=0;whiteSpace=wrap;html=1;" vertex="1" parent="1">
          <mxGeometry x="561" y="450" width="140" height="40" as="geometry" />
        </mxCell>
      </root>
    </mxGraphModel>
  </diagram>
</mxfile>
